:SAMPLES-PER-SECOND 24
:FULLY-SPECIFIED
:DEGREES
634
root  7.7266 39.2196 21.1831 4.50146 66.4593 -3.22028
RightUpLeg  -16.1587 -3.35195 -10.2383
RightLeg  29.7139 -7.70954 -4.96388
RightFoot  -5.53168 -0.566999 10.1534
RightToes  -2.08645e-008 3.77894e-005 6.81332e-007
Spine  -1.54936 -2.1368 -1.52254
Spine1  4.78533 -2.36678 1.50302
HEad  -36.5372 -29.9523 14.0424
LeftShoulder1  8.31324 -14.0112 -41.1867
LeftArm  -9.03459 26.4183 -31.8739
LeftForeArm  167.946 -67.7669 -155.922
LeftHand  -0.449656 -0.277025 9.29924
RightShoulder  4.00391 6.56223 33.8894
RightArm  9.66682 -22.3406 33.9165
RightForeArm  127.4 79.7626 113.162
RightHand  -0.208838 9.23316 -2.05542
LeftUpLeg  -10.5915 -10.3197 10.4122
LeftLeg  23.4024 10.5443 5.24617
LeftFoot  -10.9431 0.123965 -18.1337
LeftToes  1.24767e-006 1.47042e-008 1.32732e-009
635
root  8.1045 40.7648 20.5617 4.72217 65.8728 -4.26093
RightUpLeg  -15.9708 -4.61616 -9.98682
RightLeg  23.57 -9.54572 -4.74958
RightFoot  7.68207 -1.43279 8.85115
RightToes  -2.08645e-008 3.77894e-005 6.81332e-007
Spine  -2.80672 -2.54558 -1.07476
Spine1  3.06189 -3.03549 3.06467
HEad  -33.038 -29.1075 11.8753
LeftShoulder1  7.78663 -13.5684 -39.437
LeftArm  -5.04751 28.4683 -32.1747
LeftForeArm  164.692 -66.8748 -156.518
LeftHand  -0.450784 -0.802624 8.57743
RightShoulder  3.9102 6.50131 33.1984
RightArm  12.1217 -25.4819 34.3911
RightForeArm  134.232 78.7427 122.43
RightHand  -0.129394 9.11126 -1.42788
LeftUpLeg  -8.86249 -2.38989 10.6104
LeftLeg  15.495 2.11053 1.11257
LeftFoot  -0.646603 1.76822 -18.7077
LeftToes  1.24767e-006 1.47042e-008 1.32732e-009
636
root  8.37566 41.8088 19.95 3.44128 65.4358 -6.19617
RightUpLeg  -16.0613 -8.24909 -8.92086
RightLeg  19.7134 -9.40669 -3.9282
RightFoot  15.9722 -1.82537 7.93121
RightToes  -2.08645e-008 3.77894e-005 6.81332e-007
Spine  -3.37464 -2.8183 0.186306
Spine1  1.97375 -3.45387 3.69509
HEad  -30.8315 -28.1029 11.2032
LeftShoulder1  7.47102 -13.3723 -38.1571
LeftArm  0.184653 28.5517 -29.011
LeftForeArm  164.679 -65.5598 -157.857
LeftHand  -0.331458 -1.47508 5.76408
RightShoulder  3.95328 6.62202 33.1571
RightArm  14.3067 -27.454 32.7668
RightForeArm  141.007 77.1952 131.615
RightHand  -0.090013 8.7428 -1.12459
LeftUpLeg  -7.61511 3.50023 11.6311
LeftLeg  10.7679 -6.66752 -0.78233
LeftFoot  6.74874 3.27536 -20.6884
LeftToes  1.24767e-006 1.47042e-008 1.32732e-009
637
root  8.49481 42.1878 19.3115 1.72473 64.838 -7.31335
RightUpLeg  -15.4018 -8.65379 -8.68225
RightLeg  18.4696 -5.74089 -2.32785
RightFoot  15.896 -2.32125 10.0396
RightToes  -2.08645e-008 3.77894e-005 6.81332e-007
Spine  -2.56525 -3.10183 0.36113
Spine1  1.71975 -3.8633 4.34127
HEad  -30.3874 -26.7537 11.4952
LeftShoulder1  7.24436 -13.2788 -37.092
LeftArm  5.60459 26.3618 -24.9744
LeftForeArm  165.999 -63.9596 -159.455
LeftHand  -0.278916 -1.82104 4.66583
RightShoulder  3.93653 6.63894 32.9267
RightArm  16.0112 -26.9061 31.18
RightForeArm  143.682 75.9561 136.64
RightHand  -0.00472679 8.57974 -0.433708
LeftUpLeg  -7.01924 1.03246 12.4717
LeftLeg  11.2246 -3.12334 0.301232
LeftFoot  8.48269 3.14276 -18.1588
LeftToes  1.24767e-006 1.47042e-008 1.32732e-009
638
root  8.51123 41.951 18.7084 0.96228 63.6485 -7.04712
RightUpLeg  -15.1848 -3.62642 -9.41333
RightLeg  19.4879 -1.43866 -0.789649
RightFoot  12.9332 -2.68505 12.8733
RightToes  -2.08645e-008 3.77894e-005 6.81332e-007
Spine  -1.53728 -3.27998 -1.4459
Spine1  2.07899 -4.30504 5.93069
HEad  -30.4865 -25.0861 11.8432
LeftShoulder1  6.76926 -12.8886 -35.2655
LeftArm  9.24264 23.0472 -22.5784
LeftForeArm  167.709 -62.6138 -160.733
LeftHand  -0.273289 -2.00565 4.47647
RightShoulder  3.76568 6.45951 31.9067
RightArm  16.6488 -24.437 31.3673
RightForeArm  142.119 76.3385 135.043
RightHand  -0.103475 8.16129 -1.26251
LeftUpLeg  -7.08818 -3.63223 12.6532
LeftLeg  15.3346 6.91595 2.71336
LeftFoot  8.28887 1.96463 -11.5841
LeftToes  1.24767e-006 1.47042e-008 1.32732e-009
639
root  8.54978 41.0541 18.1745 1.2395 61.9907 -6.05109
RightUpLeg  -15.9495 1.82132 -10.2754
RightLeg  22.4311 -0.440819 -0.418348
RightFoot  7.79965 -2.19018 13.2563
RightToes  -2.08645e-008 3.77894e-005 6.81332e-007
Spine  -1.20272 -3.25254 -3.40115
Spine1  2.28623 -4.43626 6.92291
HEad  -29.7384 -23.9392 11.796
LeftShoulder1  6.28536 -12.4205 -33.4671
LeftArm  10.1893 19.229 -20.7428
LeftForeArm  167.136 -62.5302 -160.743
LeftHand  -0.227795 -2.36951 3.61242
RightShoulder  3.68126 6.3977 31.2863
RightArm  15.8808 -22.0211 32.0244
RightForeArm  135.362 77.9508 126.883
RightHand  -0.156612 8.0622 -1.72504
LeftUpLeg  -6.99953 -4.30427 12.6385
LeftLeg  19.9091 8.63856 3.77724
LeftFoot  3.84939 1.61657 -12.2628
LeftToes  1.24767e-006 1.47042e-008 1.32732e-009
640
root  8.60337 39.6254 17.585 1.86084 60.7692 -4.37317
RightUpLeg  -16.519 3.39343 -11.5129
RightLeg  26.3922 -1.75907 -1.17731
RightFoot  -1.107 -1.01605 11.1719
RightToes  -2.08645e-008 3.77894e-005 6.81332e-007
Spine  -0.47554 -3.19458 -4.86285
Spine1  2.44506 -4.43005 7.0304
HEad  -29.6062 -23.5659 11.463
LeftShoulder1  6.14994 -12.2 -33.1624
LeftArm  9.68671 13.6893 -17.9079
LeftForeArm  165.37 -63.6577 -159.651
LeftHand  -0.307702 -2.73464 4.61615
RightShoulder  3.685 6.3939 31.339
RightArm  14.1879 -19.6859 32.4099
RightForeArm  125.945 79.1437 117.213
RightHand  -0.272203 8.38977 -2.66968
LeftUpLeg  -6.73803 -3.64805 12.0945
LeftLeg  24.7055 4.25102 2.4664
LeftFoot  -7.56819 0.650748 -17.9618
LeftToes  1.24767e-006 1.47042e-008 1.32732e-009
641
root  8.61961 38.315 16.8495 2.42798 59.963 -2.22675
RightUpLeg  -16.9987 3.05777 -13.5982
RightLeg  30.0382 -2.27359 -1.64952
RightFoot  -8.64608 -0.278679 9.63062
RightToes  -2.08645e-008 3.77894e-005 6.81332e-007
Spine  0.44194 -3.02583 -6.40123
Spine1  4.07039 -4.50351 7.07835
HEad  -32.3234 -23.2902 11.6084
LeftShoulder1  6.35074 -12.2615 -34.2731
LeftArm  6.87135 7.75013 -15.9927
LeftForeArm  167.432 -66.0071 -157.706
LeftHand  -0.415061 -2.64124 6.22486
RightShoulder  3.64867 6.26575 31.4578
RightArm  11.1341 -17.457 33.1753
RightForeArm  123.434 79.5785 113.047
RightHand  -0.439726 8.36548 -4.08371
LeftUpLeg  -6.74364 -4.0708 9.78394
LeftLeg  29.3062 4.07639 2.86525
LeftFoot  -18.3652 -0.974867 -18.025
LeftToes  1.24767e-006 1.47042e-008 1.32732e-009
642
root  8.73551 37.8786 16.001 2.26892 57.9306 -1.58246
RightUpLeg  -18.1816 4.69138 -15.3567
RightLeg  31.3615 -1.85661 -1.46077
RightFoot  -9.46976 -0.233296 10.4678
RightToes  -2.08645e-008 3.77894e-005 6.81332e-007
Spine  0.323508 -2.70243 -6.02759
Spine1  6.46643 -4.27948 6.34027
HEad  -36.4428 -22.2098 12.2189
LeftShoulder1  6.75694 -12.6044 -35.9062
LeftArm  2.24897 8.34196 -17.6464
LeftForeArm  171.803 -68.4495 -155.583
LeftHand  -0.390463 -2.7755 5.77601
RightShoulder  3.67314 6.23323 31.8376
RightArm  7.81927 -17.339 34.2305
RightForeArm  126.114 79.8981 111.497
RightHand  -0.408886 8.92073 -3.69874
LeftUpLeg  -6.1973 -5.63568 6.80757
LeftLeg  30.7519 9.17352 6.20208
LeftFoot  -21.7988 -1.29615 -15.4852
LeftToes  1.24767e-006 1.47042e-008 1.32732e-009
643
root  9.03207 38.5591 15.2223 1.97644 54.4539 -2.65863
RightUpLeg  -19.4801 7.60564 -15.8581
RightLeg  28.1867 -2.13268 -1.46741
RightFoot  -2.50043 -0.924191 11.6958
RightToes  -2.08645e-008 3.77894e-005 6.81332e-007
Spine  -0.361049 -2.54532 -4.05976
Spine1  6.84497 -3.98753 5.73335
HEad  -38.1094 -20.0961 12.3271
LeftShoulder1  7.0515 -12.848 -37.0522
LeftArm  -0.686591 17.9633 -23.4961
LeftForeArm  172.826 -68.8315 -155.258
LeftHand  -0.399239 -2.16474 6.33464
RightShoulder  3.78837 6.35859 32.529
RightArm  7.3625 -20.0132 34.8656
RightForeArm  123.638 80.1848 107.756
RightHand  -0.311156 9.11442 -2.87727
LeftUpLeg  -4.6088 -4.84657 5.56769
LeftLeg  26.9198 12.2246 7.00163
LeftFoot  -18.2103 -0.810189 -15.233
LeftToes  1.24767e-006 1.47042e-008 1.32732e-009
644
root  9.36542 39.9885 14.703 3.12854 51.8391 -3.40662
RightUpLeg  -19.7713 6.66809 -15.2777
RightLeg  20.9538 -3.08462 -1.61113
RightFoot  10.0878 -2.25857 12.2382
RightToes  -2.08645e-008 3.77894e-005 6.81332e-007
Spine  -1.84247 -2.8341 -4.19657
Spine1  5.52388 -4.4377 7.46979
HEad  -36.2319 -18.0356 11.7884
LeftShoulder1  6.98716 -12.7155 -37.009
LeftArm  -2.53006 29.9713 -31.2679
LeftForeArm  168.44 -68.7417 -154.823
LeftHand  -0.511209 -1.30918 9.00013
RightShoulder  3.87014 6.44607 33.0136
RightArm  9.31605 -24.8226 34.5883
RightForeArm  120.53 80.061 107.502
RightHand  -0.340224 8.51983 -3.21416
LeftUpLeg  -2.80167 1.35045 6.30898
LeftLeg  18.4929 8.04601 3.35163
LeftFoot  -9.81358 0.272337 -15.7661
LeftToes  1.24767e-006 1.47042e-008 1.32732e-009
645
root  9.62275 41.303 14.351 4.74341 51.7011 -3.83978
RightUpLeg  -18.8758 -1.95502 -12.7075
RightLeg  13.7051 -1.73046 -1.69993
RightFoot  19.4695 -3.51182 13.1976
RightToes  -2.08645e-008 3.77894e-005 6.81332e-007
Spine  -4.7377 -3.5889 -4.86445
Spine1  5.27405 -5.34776 9.2088
HEad  -33.624 -17.2795 11.4668
LeftShoulder1  6.88882 -12.6538 -36.5799
LeftArm  -4.54917 38.6282 -36.2467
LeftForeArm  163.358 -68.9919 -153.867
LeftHand  -0.515138 -1.57178 8.76681
RightShoulder  3.94412 6.52184 33.4558
RightArm  10.2794 -31.0101 33.4727
RightForeArm  128.349 79.2238 117.426
RightHand  -0.220609 8.81375 -2.19477
LeftUpLeg  -1.96968 6.61863 7.81078
LeftLeg  10.9871 0.0679306 -0.296299
LeftFoot  -0.507206 1.65417 -17.187
LeftToes  1.24767e-006 1.47042e-008 1.32732e-009
646
root  9.76123 41.9688 13.8629 4.44482 52.769 -4.93097
RightUpLeg  -17.5084 -7.064 -10.9206
RightLeg  11.83 0.0127647 -1.32406
RightFoot  20.2694 -3.63739 13.3129
RightToes  -2.08645e-008 3.77894e-005 6.81332e-007
Spine  -6.5513 -4.01735 -2.35574
Spine1  6.36206 -5.54693 7.53855
HEad  -33.1964 -17.5997 11.8876
LeftShoulder1  7.06149 -12.9642 -36.8145
LeftArm  -4.01121 42.4117 -36.2035
LeftForeArm  161.304 -69.007 -153.583
LeftHand  -0.363404 -1.9681 5.91722
RightShoulder  4.06992 6.65597 34.1692
RightArm  9.67801 -36.1148 32.056
RightForeArm  139.269 77.7475 128.846
RightHand  -0.00349715 9.16457 -0.422437
LeftUpLeg  -2.42238 4.55906 8.62957
LeftLeg  9.5469 -2.17979 -0.189463
LeftFoot  4.87375 2.52378 -17.8196
LeftToes  1.24767e-006 1.47042e-008 1.32732e-009
647
root  9.73138 41.9651 13.2354 2.33936 52.592 -5.86731
RightUpLeg  -16.2439 -3.29933 -10.9644
RightLeg  15.9996 0.259526 -0.972582
RightFoot  17.8874 -2.89045 11.5329
RightToes  -2.08645e-008 3.77894e-005 6.81332e-007
Spine  -5.2539 -3.62183 0.632541
Spine1  7.30943 -4.74868 4.89162
HEad  -34.2646 -17.8603 12.3939
LeftShoulder1  7.1432 -13.1117 -36.922
LeftArm  -0.696489 42.1984 -34.2928
LeftForeArm  162.352 -69.169 -153.506
LeftHand  -0.263811 -2.25808 4.20465
RightShoulder  4.08263 6.68555 34.178
RightArm  9.56791 -37.9836 30.9007
RightForeArm  144.831 76.4256 135.326
RightHand  -0.0292427 8.84445 -0.628925
LeftUpLeg  -2.67129 -1.08576 8.77807
LeftLeg  13.9273 2.61621 1.37094
LeftFoot  5.51952 2.22775 -15.1851
LeftToes  1.24767e-006 1.47042e-008 1.32732e-009
